<?xml version="1.0" encoding="UTF-8"?>
<svg xmlns="http://www.w3.org/2000/svg" xmlns:xlink="http://www.w3.org/1999/xlink" width="288px" height="252px" viewBox="0 0 288 252" version="1.1" id="Fig:dens">
  <metadata xmlns:gridsvg="http://www.stat.auckland.ac.nz/~paul/R/gridSVG/">
    <gridsvg:generator name="gridSVG" version="1.7-7" time="2025-11-13 22:21:43.408657"/>
    <gridsvg:argument name="name" value="C:/Users/nicol/Documents/differential-expression-uterine-cancer/ANALISIS/GSE57978/QC/arrayQualityMetrics/dens.svg"/>
    <gridsvg:argument name="exportCoords" value="none"/>
    <gridsvg:argument name="exportMappings" value="none"/>
    <gridsvg:argument name="exportJS" value="none"/>
    <gridsvg:argument name="res" value="72"/>
    <gridsvg:argument name="prefix" value="Fig:dens"/>
    <gridsvg:argument name="addClasses" value="FALSE"/>
    <gridsvg:argument name="indent" value="TRUE"/>
    <gridsvg:argument name="htmlWrapper" value="FALSE"/>
    <gridsvg:argument name="usePaths" value="none"/>
    <gridsvg:argument name="uniqueNames" value="TRUE"/>
    <gridsvg:separator name="id.sep" value="."/>
    <gridsvg:separator name="gPath.sep" value="::"/>
    <gridsvg:separator name="vpPath.sep" value="::"/>
  </metadata>
  <g transform="translate(0, 252) scale(1, -1)">
    <g id="Fig:densgridSVG" fill="none" stroke="rgb(0,0,0)" stroke-dasharray="none" stroke-width="0.75" font-size="12" font-family="Helvetica, Arial, FreeSans, Liberation Sans, Nimbus Sans L, sans-serif" opacity="1" stroke-linecap="round" stroke-linejoin="round" stroke-miterlimit="10" stroke-opacity="1" fill-opacity="0" font-weight="normal" font-style="normal">
      <g id="Fig:densplot_01.background.1">
        <rect id="Fig:densplot_01.background.1.1" x="0" y="0" width="288" height="252" transform="" fill="none" stroke="none" stroke-opacity="0" fill-opacity="0"/>
      </g>
      <g id="Fig:densplot_01.toplevel.vp.1" font-size="12">
        <g id="Fig:densplot_01.ylab.vp.1">
          <g id="Fig:densplot_01.ylab.1">
            <g id="Fig:densplot_01.ylab.1.1" transform="translate(16.31, 141.09)" stroke-width="0.1">
              <g id="Fig:densplot_01.ylab.1.1.scale" transform="scale(1, -1)">
                <text x="0" y="0" id="Fig:densplot_01.ylab.1.1.text" transform="rotate(-90)" text-anchor="middle" opacity="1" stroke="rgb(0,0,0)" fill="rgb(0,0,0)" stroke-opacity="1" fill-opacity="1" font-size="12" font-weight="normal" font-style="normal">
                  <tspan id="Fig:densplot_01.ylab.1.1.tspan.1" dy="4.31" x="0">Density</tspan>
                </text>
              </g>
            </g>
          </g>
        </g>
        <g id="Fig:densplot_01.figure.vp.1"/>
        <defs>
          <clipPath id="Fig:densplot_01.panel.1.1.vp.1.clipPath">
            <rect x="50.8" y="48.19" width="225.2" height="185.81" fill="none" stroke="none"/>
          </clipPath>
        </defs>
        <g id="Fig:densplot_01.panel.1.1.vp.1" clip-path="url(#Fig:densplot_01.panel.1.1.vp.1.clipPath)"/>
        <g id="Fig:densplot_01.strip.1.1.off.vp.1"/>
        <g id="Fig:densplot_01.strip.left.1.1.off.vp.1">
          <g id="Fig:densplot_01.ticks.left.panel.1.1.1">
            <polyline id="Fig:densplot_01.ticks.left.panel.1.1.1.1" points="50.8,59.59 45.13,59.59" stroke="rgb(0,0,0)" opacity="1" stroke-dasharray="none" stroke-width="0.75" stroke-opacity="1" fill="none"/>
            <polyline id="Fig:densplot_01.ticks.left.panel.1.1.1.2" points="50.8,93.47 45.13,93.47" stroke="rgb(0,0,0)" opacity="1" stroke-dasharray="none" stroke-width="0.75" stroke-opacity="1" fill="none"/>
            <polyline id="Fig:densplot_01.ticks.left.panel.1.1.1.3" points="50.8,127.34 45.13,127.34" stroke="rgb(0,0,0)" opacity="1" stroke-dasharray="none" stroke-width="0.75" stroke-opacity="1" fill="none"/>
            <polyline id="Fig:densplot_01.ticks.left.panel.1.1.1.4" points="50.8,161.21 45.13,161.21" stroke="rgb(0,0,0)" opacity="1" stroke-dasharray="none" stroke-width="0.75" stroke-opacity="1" fill="none"/>
            <polyline id="Fig:densplot_01.ticks.left.panel.1.1.1.5" points="50.8,195.08 45.13,195.08" stroke="rgb(0,0,0)" opacity="1" stroke-dasharray="none" stroke-width="0.75" stroke-opacity="1" fill="none"/>
            <polyline id="Fig:densplot_01.ticks.left.panel.1.1.1.6" points="50.8,228.95 45.13,228.95" stroke="rgb(0,0,0)" opacity="1" stroke-dasharray="none" stroke-width="0.75" stroke-opacity="1" fill="none"/>
          </g>
          <g id="Fig:densplot_01.ticklabels.left.panel.1.1.1">
            <g id="Fig:densplot_01.ticklabels.left.panel.1.1.1.1" transform="translate(39.47, 59.59)" stroke-width="0.1">
              <g id="Fig:densplot_01.ticklabels.left.panel.1.1.1.1.scale" transform="scale(1, -1)">
                <text x="0" y="0" id="Fig:densplot_01.ticklabels.left.panel.1.1.1.1.text" transform="rotate(-90)" text-anchor="middle" stroke="rgb(0,0,0)" opacity="1" fill="rgb(0,0,0)" stroke-opacity="1" fill-opacity="1" font-size="9.6" font-weight="normal" font-style="normal">
                  <tspan id="Fig:densplot_01.ticklabels.left.panel.1.1.1.1.tspan.1" dy="0" x="0">0.00</tspan>
                </text>
              </g>
            </g>
            <g id="Fig:densplot_01.ticklabels.left.panel.1.1.1.2" transform="translate(39.47, 93.47)" stroke-width="0.1">
              <g id="Fig:densplot_01.ticklabels.left.panel.1.1.1.2.scale" transform="scale(1, -1)">
                <text x="0" y="0" id="Fig:densplot_01.ticklabels.left.panel.1.1.1.2.text" transform="rotate(-90)" text-anchor="middle" stroke="rgb(0,0,0)" opacity="1" fill="rgb(0,0,0)" stroke-opacity="1" fill-opacity="1" font-size="9.6" font-weight="normal" font-style="normal">
                  <tspan id="Fig:densplot_01.ticklabels.left.panel.1.1.1.2.tspan.1" dy="0" x="0">0.05</tspan>
                </text>
              </g>
            </g>
            <g id="Fig:densplot_01.ticklabels.left.panel.1.1.1.3" transform="translate(39.47, 127.34)" stroke-width="0.1">
              <g id="Fig:densplot_01.ticklabels.left.panel.1.1.1.3.scale" transform="scale(1, -1)">
                <text x="0" y="0" id="Fig:densplot_01.ticklabels.left.panel.1.1.1.3.text" transform="rotate(-90)" text-anchor="middle" stroke="rgb(0,0,0)" opacity="1" fill="rgb(0,0,0)" stroke-opacity="1" fill-opacity="1" font-size="9.6" font-weight="normal" font-style="normal">
                  <tspan id="Fig:densplot_01.ticklabels.left.panel.1.1.1.3.tspan.1" dy="0" x="0">0.10</tspan>
                </text>
              </g>
            </g>
            <g id="Fig:densplot_01.ticklabels.left.panel.1.1.1.4" transform="translate(39.47, 161.21)" stroke-width="0.1">
              <g id="Fig:densplot_01.ticklabels.left.panel.1.1.1.4.scale" transform="scale(1, -1)">
                <text x="0" y="0" id="Fig:densplot_01.ticklabels.left.panel.1.1.1.4.text" transform="rotate(-90)" text-anchor="middle" stroke="rgb(0,0,0)" opacity="1" fill="rgb(0,0,0)" stroke-opacity="1" fill-opacity="1" font-size="9.6" font-weight="normal" font-style="normal">
                  <tspan id="Fig:densplot_01.ticklabels.left.panel.1.1.1.4.tspan.1" dy="0" x="0">0.15</tspan>
                </text>
              </g>
            </g>
            <g id="Fig:densplot_01.ticklabels.left.panel.1.1.1.5" transform="translate(39.47, 195.08)" stroke-width="0.1">
              <g id="Fig:densplot_01.ticklabels.left.panel.1.1.1.5.scale" transform="scale(1, -1)">
                <text x="0" y="0" id="Fig:densplot_01.ticklabels.left.panel.1.1.1.5.text" transform="rotate(-90)" text-anchor="middle" stroke="rgb(0,0,0)" opacity="1" fill="rgb(0,0,0)" stroke-opacity="1" fill-opacity="1" font-size="9.6" font-weight="normal" font-style="normal">
                  <tspan id="Fig:densplot_01.ticklabels.left.panel.1.1.1.5.tspan.1" dy="0" x="0">0.20</tspan>
                </text>
              </g>
            </g>
            <g id="Fig:densplot_01.ticklabels.left.panel.1.1.1.6" transform="translate(39.47, 228.95)" stroke-width="0.1">
              <g id="Fig:densplot_01.ticklabels.left.panel.1.1.1.6.scale" transform="scale(1, -1)">
                <text x="0" y="0" id="Fig:densplot_01.ticklabels.left.panel.1.1.1.6.text" transform="rotate(-90)" text-anchor="middle" stroke="rgb(0,0,0)" opacity="1" fill="rgb(0,0,0)" stroke-opacity="1" fill-opacity="1" font-size="9.6" font-weight="normal" font-style="normal">
                  <tspan id="Fig:densplot_01.ticklabels.left.panel.1.1.1.6.tspan.1" dy="0" x="0">0.25</tspan>
                </text>
              </g>
            </g>
          </g>
        </g>
        <g id="Fig:densplot_01.panel.1.1.off.vp.1">
          <g id="Fig:densplot_01.ticks.bottom.panel.1.1.1">
            <polyline id="Fig:densplot_01.ticks.bottom.panel.1.1.1.1" points="58.31,48.19 58.31,42.52" stroke="rgb(0,0,0)" opacity="1" stroke-dasharray="none" stroke-width="0.75" stroke-opacity="1" fill="none"/>
            <polyline id="Fig:densplot_01.ticks.bottom.panel.1.1.1.2" points="101.55,48.19 101.55,42.52" stroke="rgb(0,0,0)" opacity="1" stroke-dasharray="none" stroke-width="0.75" stroke-opacity="1" fill="none"/>
            <polyline id="Fig:densplot_01.ticks.bottom.panel.1.1.1.3" points="144.8,48.19 144.8,42.52" stroke="rgb(0,0,0)" opacity="1" stroke-dasharray="none" stroke-width="0.75" stroke-opacity="1" fill="none"/>
            <polyline id="Fig:densplot_01.ticks.bottom.panel.1.1.1.4" points="188.04,48.19 188.04,42.52" stroke="rgb(0,0,0)" opacity="1" stroke-dasharray="none" stroke-width="0.75" stroke-opacity="1" fill="none"/>
            <polyline id="Fig:densplot_01.ticks.bottom.panel.1.1.1.5" points="231.29,48.19 231.29,42.52" stroke="rgb(0,0,0)" opacity="1" stroke-dasharray="none" stroke-width="0.75" stroke-opacity="1" fill="none"/>
            <polyline id="Fig:densplot_01.ticks.bottom.panel.1.1.1.6" points="274.53,48.19 274.53,42.52" stroke="rgb(0,0,0)" opacity="1" stroke-dasharray="none" stroke-width="0.75" stroke-opacity="1" fill="none"/>
          </g>
          <g id="Fig:densplot_01.ticklabels.bottom.panel.1.1.1">
            <g id="Fig:densplot_01.ticklabels.bottom.panel.1.1.1.1" transform="translate(58.31, 36.85)" stroke-width="0.1">
              <g id="Fig:densplot_01.ticklabels.bottom.panel.1.1.1.1.scale" transform="scale(1, -1)">
                <text x="0" y="0" id="Fig:densplot_01.ticklabels.bottom.panel.1.1.1.1.text" text-anchor="middle" stroke="rgb(0,0,0)" opacity="1" fill="rgb(0,0,0)" stroke-opacity="1" fill-opacity="1" font-size="9.6" font-weight="normal" font-style="normal">
                  <tspan id="Fig:densplot_01.ticklabels.bottom.panel.1.1.1.1.tspan.1" dy="7.18" x="0">4</tspan>
                </text>
              </g>
            </g>
            <g id="Fig:densplot_01.ticklabels.bottom.panel.1.1.1.2" transform="translate(101.55, 36.85)" stroke-width="0.1">
              <g id="Fig:densplot_01.ticklabels.bottom.panel.1.1.1.2.scale" transform="scale(1, -1)">
                <text x="0" y="0" id="Fig:densplot_01.ticklabels.bottom.panel.1.1.1.2.text" text-anchor="middle" stroke="rgb(0,0,0)" opacity="1" fill="rgb(0,0,0)" stroke-opacity="1" fill-opacity="1" font-size="9.6" font-weight="normal" font-style="normal">
                  <tspan id="Fig:densplot_01.ticklabels.bottom.panel.1.1.1.2.tspan.1" dy="7.18" x="0">6</tspan>
                </text>
              </g>
            </g>
            <g id="Fig:densplot_01.ticklabels.bottom.panel.1.1.1.3" transform="translate(144.8, 36.85)" stroke-width="0.1">
              <g id="Fig:densplot_01.ticklabels.bottom.panel.1.1.1.3.scale" transform="scale(1, -1)">
                <text x="0" y="0" id="Fig:densplot_01.ticklabels.bottom.panel.1.1.1.3.text" text-anchor="middle" stroke="rgb(0,0,0)" opacity="1" fill="rgb(0,0,0)" stroke-opacity="1" fill-opacity="1" font-size="9.6" font-weight="normal" font-style="normal">
                  <tspan id="Fig:densplot_01.ticklabels.bottom.panel.1.1.1.3.tspan.1" dy="7.18" x="0">8</tspan>
                </text>
              </g>
            </g>
            <g id="Fig:densplot_01.ticklabels.bottom.panel.1.1.1.4" transform="translate(188.04, 36.85)" stroke-width="0.1">
              <g id="Fig:densplot_01.ticklabels.bottom.panel.1.1.1.4.scale" transform="scale(1, -1)">
                <text x="0" y="0" id="Fig:densplot_01.ticklabels.bottom.panel.1.1.1.4.text" text-anchor="middle" stroke="rgb(0,0,0)" opacity="1" fill="rgb(0,0,0)" stroke-opacity="1" fill-opacity="1" font-size="9.6" font-weight="normal" font-style="normal">
                  <tspan id="Fig:densplot_01.ticklabels.bottom.panel.1.1.1.4.tspan.1" dy="7.18" x="0">10</tspan>
                </text>
              </g>
            </g>
            <g id="Fig:densplot_01.ticklabels.bottom.panel.1.1.1.5" transform="translate(231.29, 36.85)" stroke-width="0.1">
              <g id="Fig:densplot_01.ticklabels.bottom.panel.1.1.1.5.scale" transform="scale(1, -1)">
                <text x="0" y="0" id="Fig:densplot_01.ticklabels.bottom.panel.1.1.1.5.text" text-anchor="middle" stroke="rgb(0,0,0)" opacity="1" fill="rgb(0,0,0)" stroke-opacity="1" fill-opacity="1" font-size="9.6" font-weight="normal" font-style="normal">
                  <tspan id="Fig:densplot_01.ticklabels.bottom.panel.1.1.1.5.tspan.1" dy="7.18" x="0">12</tspan>
                </text>
              </g>
            </g>
          </g>
        </g>
        <defs>
          <clipPath id="Fig:densplot_01.panel.1.1.vp.2.clipPath">
            <rect x="50.8" y="48.19" width="225.2" height="185.81" fill="none" stroke="none"/>
          </clipPath>
        </defs>
        <g id="Fig:densplot_01.panel.1.1.vp.2" clip-path="url(#Fig:densplot_01.panel.1.1.vp.2.clipPath)">
          <g id="Fig:densplot_01.xyplot.lines.group.1.panel.1.1.1">
            <polyline id="Fig:densplot_01.xyplot.lines.group.1.panel.1.1.1.1" points="64.86,59.6 65.24,59.61 65.63,59.62 66.01,59.64 66.4,59.67 66.79,59.7 67.17,59.76 67.56,59.84 67.94,59.95 68.33,60.1 68.71,60.29 69.1,60.55 69.49,60.88 69.87,61.31 70.26,61.86 70.64,62.54 71.03,63.37 71.41,64.37 71.8,65.57 72.19,66.98 72.57,68.62 72.96,70.52 73.34,72.68 73.73,75.13 74.11,77.88 74.5,80.95 74.88,84.33 75.27,87.99 75.66,91.93 76.04,96.13 76.43,100.55 76.81,105.18 77.2,109.97 77.58,114.88 77.97,119.86 78.36,124.88 78.74,129.88 79.13,134.8 79.51,139.6 79.9,144.26 80.28,148.72 80.67,152.96 81.06,156.96 81.44,160.69 81.83,164.16 82.21,167.35 82.6,170.26 82.98,172.89 83.37,175.26 83.76,177.41 84.14,179.35 84.53,181.11 84.91,182.72 85.3,184.19 85.68,185.55 86.07,186.81 86.46,187.99 86.84,189.1 87.23,190.15 87.61,191.14 88,192.09 88.38,192.99 88.77,193.85 89.16,194.66 89.54,195.43 89.93,196.14 90.31,196.8 90.7,197.39 91.08,197.93 91.47,198.39 91.86,198.77 92.24,199.09 92.63,199.32 93.01,199.49 93.4,199.58 93.78,199.6 94.17,199.57 94.56,199.48 94.94,199.35 95.33,199.18 95.71,198.99 96.1,198.78 96.48,198.58 96.87,198.39 97.26,198.21 97.64,198.05 98.03,197.93 98.41,197.84 98.8,197.78 99.18,197.76 99.57,197.76 99.96,197.79 100.34,197.83 100.73,197.88 101.11,197.91 101.5,197.93 101.88,197.93 102.27,197.9 102.65,197.84 103.04,197.75 103.43,197.64 103.81,197.52 104.2,197.39 104.58,197.26 104.97,197.15 105.35,197.05 105.74,196.97 106.13,196.9 106.51,196.84 106.9,196.79 107.28,196.74 107.67,196.68 108.05,196.6 108.44,196.51 108.83,196.39 109.21,196.25 109.6,196.1 109.98,195.93 110.37,195.75 110.75,195.57 111.14,195.39 111.53,195.22 111.91,195.05 112.3,194.9 112.68,194.76 113.07,194.63 113.45,194.51 113.84,194.4 114.23,194.29 114.61,194.18 115,194.07 115.38,193.95 115.77,193.83 116.15,193.69 116.54,193.55 116.93,193.39 117.31,193.22 117.7,193.03 118.08,192.84 118.47,192.63 118.85,192.4 119.24,192.16 119.63,191.91 120.01,191.63 120.4,191.34 120.78,191.02 121.17,190.68 121.55,190.32 121.94,189.94 122.33,189.54 122.71,189.13 123.1,188.7 123.48,188.26 123.87,187.81 124.25,187.35 124.64,186.9 125.03,186.43 125.41,185.97 125.8,185.5 126.18,185.03 126.57,184.56 126.95,184.08 127.34,183.6 127.73,183.11 128.11,182.63 128.5,182.15 128.88,181.67 129.27,181.2 129.65,180.74 130.04,180.29 130.42,179.86 130.81,179.44 131.2,179.04 131.58,178.65 131.97,178.28 132.35,177.91 132.74,177.56 133.12,177.22 133.51,176.88 133.9,176.54 134.28,176.19 134.67,175.84 135.05,175.48 135.44,175.1 135.82,174.71 136.21,174.3 136.6,173.88 136.98,173.43 137.37,172.97 137.75,172.49 138.14,172 138.52,171.5 138.91,170.99 139.3,170.48 139.68,169.97 140.07,169.47 140.45,168.98 140.84,168.49 141.22,168.02 141.61,167.55 142,167.09 142.38,166.64 142.77,166.2 143.15,165.76 143.54,165.31 143.92,164.87 144.31,164.42 144.7,163.96 145.08,163.49 145.47,163.02 145.85,162.53 146.24,162.04 146.62,161.54 147.01,161.03 147.4,160.52 147.78,160.01 148.17,159.5 148.55,159 148.94,158.5 149.32,158 149.71,157.51 150.1,157.03 150.48,156.56 150.87,156.09 151.25,155.63 151.64,155.18 152.02,154.74 152.41,154.3 152.8,153.87 153.18,153.46 153.57,153.05 153.95,152.65 154.34,152.27 154.72,151.89 155.11,151.51 155.5,151.14 155.88,150.77 156.27,150.4 156.65,150.03 157.04,149.65 157.42,149.28 157.81,148.9 158.2,148.52 158.58,148.15 158.97,147.77 159.35,147.4 159.74,147.03 160.12,146.67 160.51,146.3 160.89,145.94 161.28,145.58 161.67,145.21 162.05,144.84 162.44,144.46 162.82,144.07 163.21,143.67 163.59,143.25 163.98,142.83 164.37,142.39 164.75,141.96 165.14,141.52 165.52,141.08 165.91,140.65 166.29,140.23 166.68,139.83 167.07,139.45 167.45,139.09 167.84,138.75 168.22,138.43 168.61,138.12 168.99,137.83 169.38,137.54 169.77,137.25 170.15,136.96 170.54,136.66 170.92,136.35 171.31,136.03 171.69,135.69 172.08,135.34 172.47,134.98 172.85,134.61 173.24,134.24 173.62,133.86 174.01,133.48 174.39,133.11 174.78,132.74 175.17,132.37 175.55,132.02 175.94,131.67 176.32,131.33 176.71,131.01 177.09,130.7 177.48,130.41 177.87,130.13 178.25,129.86 178.64,129.6 179.02,129.36 179.41,129.13 179.79,128.91 180.18,128.69 180.57,128.48 180.95,128.26 181.34,128.04 181.72,127.81 182.11,127.56 182.49,127.3 182.88,127.02 183.27,126.73 183.65,126.42 184.04,126.1 184.42,125.76 184.81,125.41 185.19,125.05 185.58,124.68 185.97,124.31 186.35,123.94 186.74,123.58 187.12,123.21 187.51,122.86 187.89,122.51 188.28,122.18 188.66,121.86 189.05,121.55 189.44,121.25 189.82,120.96 190.21,120.69 190.59,120.42 190.98,120.16 191.36,119.91 191.75,119.66 192.14,119.41 192.52,119.16 192.91,118.9 193.29,118.65 193.68,118.38 194.06,118.12 194.45,117.85 194.84,117.58 195.22,117.3 195.61,117.02 195.99,116.74 196.38,116.46 196.76,116.18 197.15,115.9 197.54,115.62 197.92,115.34 198.31,115.06 198.69,114.78 199.08,114.49 199.46,114.2 199.85,113.9 200.24,113.6 200.62,113.29 201.01,112.97 201.39,112.64 201.78,112.31 202.16,111.96 202.55,111.62 202.94,111.27 203.32,110.92 203.71,110.57 204.09,110.22 204.48,109.88 204.86,109.55 205.25,109.23 205.64,108.91 206.02,108.59 206.41,108.28 206.79,107.97 207.18,107.66 207.56,107.35 207.95,107.03 208.34,106.72 208.72,106.4 209.11,106.07 209.49,105.75 209.88,105.42 210.26,105.1 210.65,104.79 211.04,104.48 211.42,104.17 211.81,103.88 212.19,103.59 212.58,103.31 212.96,103.03 213.35,102.76 213.74,102.5 214.12,102.24 214.51,101.98 214.89,101.72 215.28,101.46 215.66,101.19 216.05,100.91 216.44,100.63 216.82,100.35 217.21,100.05 217.59,99.74 217.98,99.43 218.36,99.1 218.75,98.77 219.13,98.42 219.52,98.07 219.91,97.72 220.29,97.37 220.68,97.02 221.06,96.67 221.45,96.33 221.83,95.99 222.22,95.67 222.61,95.35 222.99,95.05 223.38,94.76 223.76,94.47 224.15,94.2 224.53,93.93 224.92,93.66 225.31,93.4 225.69,93.14 226.08,92.89 226.46,92.63 226.85,92.37 227.23,92.11 227.62,91.85 228.01,91.59 228.39,91.33 228.78,91.06 229.16,90.8 229.55,90.53 229.93,90.26 230.32,89.99 230.71,89.72 231.09,89.45 231.48,89.17 231.86,88.88 232.25,88.58 232.63,88.28 233.02,87.97 233.41,87.66 233.79,87.34 234.18,87.01 234.56,86.68 234.95,86.36 235.33,86.03 235.72,85.71 236.11,85.4 236.49,85.1 236.88,84.8 237.26,84.52 237.65,84.24 238.03,83.98 238.42,83.72 238.81,83.47 239.19,83.23 239.58,82.98 239.96,82.74 240.35,82.5 240.73,82.26 241.12,82.01 241.51,81.76 241.89,81.51 242.28,81.26 242.66,81.01 243.05,80.76 243.43,80.52 243.82,80.28 244.21,80.05 244.59,79.84 244.98,79.64 245.36,79.47 245.75,79.32 246.13,79.21 246.52,79.13 246.9,79.1 247.29,79.13 247.68,79.21 248.06,79.35 248.45,79.55 248.83,79.82 249.22,80.13 249.6,80.47 249.99,80.82 250.38,81.14 250.76,81.41 251.15,81.59 251.53,81.64 251.92,81.52 252.3,81.19 252.69,80.65 253.08,79.85 253.46,78.82 253.85,77.57 254.23,76.15 254.62,74.59 255,72.95 255.39,71.28 255.78,69.62 256.16,68.03 256.55,66.56 256.93,65.22 257.32,64.05 257.7,63.06 258.09,62.23 258.48,61.56 258.86,61.03 259.25,60.62 259.63,60.31 260.02,60.08 260.4,59.92 260.79,59.8 261.18,59.73 261.56,59.68 261.95,59.64" stroke-dasharray="none" stroke="rgb(31,120,180)" stroke-width="0.75" opacity="1" stroke-opacity="1" fill="none"/>
          </g>
          <g id="Fig:densplot_01.xyplot.lines.group.2.panel.1.1.1">
            <polyline id="Fig:densplot_01.xyplot.lines.group.2.panel.1.1.1.1" points="64.88,59.6 65.26,59.61 65.65,59.62 66.03,59.64 66.42,59.66 66.81,59.7 67.19,59.75 67.58,59.83 67.96,59.94 68.35,60.08 68.73,60.27 69.12,60.52 69.51,60.85 69.89,61.27 70.28,61.81 70.66,62.48 71.05,63.3 71.43,64.29 71.82,65.47 72.2,66.85 72.59,68.47 72.98,70.32 73.36,72.44 73.75,74.82 74.13,77.49 74.52,80.45 74.9,83.68 75.29,87.17 75.68,90.91 76.06,94.88 76.45,99.05 76.83,103.4 77.22,107.89 77.6,112.48 77.99,117.14 78.37,121.82 78.76,126.49 79.15,131.09 79.53,135.59 79.92,139.95 80.3,144.15 80.69,148.15 81.07,151.93 81.46,155.48 81.85,158.78 82.23,161.83 82.62,164.62 83,167.14 83.39,169.43 83.77,171.49 84.16,173.34 84.54,175.01 84.93,176.5 85.32,177.85 85.7,179.08 86.09,180.2 86.47,181.23 86.86,182.2 87.24,183.13 87.63,184.02 88.01,184.91 88.4,185.78 88.79,186.65 89.17,187.52 89.56,188.39 89.94,189.24 90.33,190.07 90.71,190.87 91.1,191.61 91.49,192.3 91.87,192.9 92.26,193.43 92.64,193.87 93.03,194.21 93.41,194.47 93.8,194.64 94.18,194.73 94.57,194.75 94.96,194.73 95.34,194.66 95.73,194.57 96.11,194.49 96.5,194.41 96.88,194.35 97.27,194.33 97.66,194.34 98.04,194.4 98.43,194.5 98.81,194.63 99.2,194.79 99.58,194.98 99.97,195.18 100.35,195.38 100.74,195.56 101.13,195.73 101.51,195.86 101.9,195.95 102.28,196 102.67,196.01 103.05,195.98 103.44,195.91 103.82,195.82 104.21,195.71 104.6,195.59 104.98,195.48 105.37,195.38 105.75,195.3 106.14,195.23 106.52,195.18 106.91,195.14 107.3,195.11 107.68,195.07 108.07,195.01 108.45,194.94 108.84,194.84 109.22,194.71 109.61,194.55 109.99,194.37 110.38,194.18 110.77,193.97 111.15,193.76 111.54,193.55 111.92,193.35 112.31,193.16 112.69,192.99 113.08,192.84 113.47,192.71 113.85,192.6 114.24,192.51 114.62,192.44 115.01,192.38 115.39,192.33 115.78,192.29 116.16,192.26 116.55,192.23 116.94,192.19 117.32,192.15 117.71,192.11 118.09,192.05 118.48,191.97 118.86,191.88 119.25,191.77 119.64,191.64 120.02,191.48 120.41,191.31 120.79,191.11 121.18,190.89 121.56,190.65 121.95,190.4 122.33,190.12 122.72,189.82 123.11,189.51 123.49,189.18 123.88,188.83 124.26,188.47 124.65,188.1 125.03,187.71 125.42,187.32 125.8,186.91 126.19,186.51 126.58,186.1 126.96,185.7 127.35,185.31 127.73,184.93 128.12,184.55 128.5,184.2 128.89,183.86 129.28,183.53 129.66,183.22 130.05,182.91 130.43,182.61 130.82,182.31 131.2,182.01 131.59,181.7 131.97,181.38 132.36,181.04 132.75,180.68 133.13,180.31 133.52,179.93 133.9,179.53 134.29,179.13 134.67,178.72 135.06,178.3 135.45,177.88 135.83,177.46 136.22,177.04 136.6,176.61 136.99,176.17 137.37,175.72 137.76,175.26 138.14,174.79 138.53,174.3 138.92,173.81 139.3,173.32 139.69,172.82 140.07,172.33 140.46,171.84 140.84,171.37 141.23,170.9 141.61,170.45 142,170.02 142.39,169.6 142.77,169.19 143.16,168.79 143.54,168.39 143.93,167.99 144.31,167.6 144.7,167.2 145.09,166.79 145.47,166.38 145.86,165.95 146.24,165.52 146.63,165.08 147.01,164.63 147.4,164.17 147.78,163.71 148.17,163.24 148.56,162.77 148.94,162.3 149.33,161.83 149.71,161.36 150.1,160.89 150.48,160.41 150.87,159.93 151.26,159.44 151.64,158.94 152.03,158.44 152.41,157.93 152.8,157.4 153.18,156.87 153.57,156.34 153.95,155.8 154.34,155.26 154.73,154.73 155.11,154.2 155.5,153.7 155.88,153.2 156.27,152.73 156.65,152.27 157.04,151.84 157.42,151.42 157.81,151.01 158.2,150.62 158.58,150.24 158.97,149.87 159.35,149.5 159.74,149.13 160.12,148.76 160.51,148.38 160.9,148.01 161.28,147.63 161.67,147.24 162.05,146.85 162.44,146.46 162.82,146.06 163.21,145.66 163.59,145.25 163.98,144.84 164.37,144.42 164.75,144.01 165.14,143.59 165.52,143.17 165.91,142.75 166.29,142.33 166.68,141.91 167.07,141.5 167.45,141.08 167.84,140.67 168.22,140.26 168.61,139.85 168.99,139.45 169.38,139.06 169.76,138.67 170.15,138.29 170.54,137.92 170.92,137.56 171.31,137.21 171.69,136.87 172.08,136.54 172.46,136.21 172.85,135.89 173.24,135.56 173.62,135.24 174.01,134.92 174.39,134.6 174.78,134.27 175.16,133.94 175.55,133.61 175.93,133.28 176.32,132.94 176.71,132.59 177.09,132.24 177.48,131.89 177.86,131.52 178.25,131.16 178.63,130.78 179.02,130.41 179.4,130.03 179.79,129.66 180.18,129.29 180.56,128.93 180.95,128.59 181.33,128.27 181.72,127.96 182.1,127.67 182.49,127.4 182.88,127.15 183.26,126.91 183.65,126.68 184.03,126.45 184.42,126.22 184.8,125.98 185.19,125.72 185.57,125.44 185.96,125.14 186.35,124.82 186.73,124.48 187.12,124.12 187.5,123.74 187.89,123.35 188.27,122.95 188.66,122.56 189.05,122.16 189.43,121.77 189.82,121.39 190.2,121.02 190.59,120.66 190.97,120.32 191.36,119.99 191.74,119.66 192.13,119.35 192.52,119.05 192.9,118.75 193.29,118.46 193.67,118.17 194.06,117.87 194.44,117.58 194.83,117.28 195.21,116.98 195.6,116.69 195.99,116.39 196.37,116.09 196.76,115.79 197.14,115.5 197.53,115.2 197.91,114.91 198.3,114.63 198.69,114.34 199.07,114.05 199.46,113.76 199.84,113.47 200.23,113.16 200.61,112.86 201,112.54 201.38,112.22 201.77,111.89 202.16,111.56 202.54,111.22 202.93,110.88 203.31,110.54 203.7,110.2 204.08,109.86 204.47,109.53 204.86,109.21 205.24,108.9 205.63,108.6 206.01,108.3 206.4,108.01 206.78,107.73 207.17,107.45 207.55,107.16 207.94,106.88 208.33,106.59 208.71,106.29 209.1,105.99 209.48,105.68 209.87,105.36 210.25,105.04 210.64,104.72 211.02,104.41 211.41,104.09 211.8,103.77 212.18,103.47 212.57,103.16 212.95,102.86 213.34,102.56 213.72,102.27 214.11,101.98 214.5,101.68 214.88,101.39 215.27,101.11 215.65,100.82 216.04,100.54 216.42,100.25 216.81,99.97 217.19,99.69 217.58,99.42 217.97,99.14 218.35,98.86 218.74,98.59 219.12,98.3 219.51,98.02 219.89,97.73 220.28,97.43 220.67,97.12 221.05,96.82 221.44,96.5 221.82,96.19 222.21,95.87 222.59,95.55 222.98,95.23 223.36,94.91 223.75,94.59 224.14,94.28 224.52,93.96 224.91,93.66 225.29,93.35 225.68,93.06 226.06,92.76 226.45,92.47 226.84,92.18 227.22,91.9 227.61,91.62 227.99,91.35 228.38,91.07 228.76,90.8 229.15,90.52 229.53,90.24 229.92,89.96 230.31,89.68 230.69,89.39 231.08,89.1 231.46,88.8 231.85,88.5 232.23,88.2 232.62,87.89 233,87.59 233.39,87.28 233.78,86.98 234.16,86.69 234.55,86.4 234.93,86.11 235.32,85.84 235.7,85.57 236.09,85.3 236.48,85.04 236.86,84.79 237.25,84.53 237.63,84.29 238.02,84.05 238.4,83.81 238.79,83.57 239.17,83.34 239.56,83.11 239.95,82.89 240.33,82.67 240.72,82.46 241.1,82.26 241.49,82.06 241.87,81.87 242.26,81.69 242.65,81.51 243.03,81.36 243.42,81.22 243.8,81.1 244.19,81.01 244.57,80.95 244.96,80.93 245.34,80.96 245.73,81.04 246.12,81.17 246.5,81.36 246.89,81.62 247.27,81.94 247.66,82.31 248.04,82.74 248.43,83.2 248.81,83.69 249.2,84.16 249.59,84.6 249.97,84.96 250.36,85.2 250.74,85.3 251.13,85.21 251.51,84.9 251.9,84.36 252.29,83.56 252.67,82.51 253.06,81.21 253.44,79.69 253.83,78 254.21,76.19 254.6,74.32 254.98,72.44 255.37,70.61 255.76,68.87 256.14,67.25 256.53,65.8 256.91,64.51 257.3,63.42 257.68,62.53 258.07,61.79 258.46,61.21 258.84,60.76 259.23,60.41 259.61,60.16 260,59.97 260.38,59.84 260.77,59.75 261.15,59.69 261.54,59.65 261.93,59.63" stroke-dasharray="none" stroke="rgb(31,120,180)" stroke-width="0.75" opacity="1" stroke-opacity="1" fill="none"/>
          </g>
          <g id="Fig:densplot_01.xyplot.lines.group.3.panel.1.1.1">
            <polyline id="Fig:densplot_01.xyplot.lines.group.3.panel.1.1.1.1" points="65.17,59.63 65.56,59.66 65.94,59.7 66.33,59.77 66.71,59.86 67.09,60 67.48,60.2 67.86,60.48 68.25,60.87 68.63,61.38 69.02,62.04 69.4,62.89 69.79,63.95 70.17,65.25 70.55,66.81 70.94,68.66 71.32,70.85 71.71,73.36 72.09,76.2 72.48,79.37 72.86,82.86 73.25,86.66 73.63,90.75 74.01,95.1 74.4,99.7 74.78,104.52 75.17,109.51 75.55,114.64 75.94,119.86 76.32,125.12 76.71,130.36 77.09,135.54 77.47,140.61 77.86,145.51 78.24,150.2 78.63,154.66 79.01,158.83 79.4,162.71 79.78,166.28 80.17,169.5 80.55,172.4 80.93,174.98 81.32,177.27 81.7,179.27 82.09,181.01 82.47,182.51 82.86,183.78 83.24,184.85 83.63,185.74 84.01,186.46 84.39,187.04 84.78,187.48 85.16,187.82 85.55,188.08 85.93,188.27 86.32,188.41 86.7,188.51 87.09,188.59 87.47,188.66 87.85,188.74 88.24,188.83 88.62,188.95 89.01,189.09 89.39,189.26 89.78,189.45 90.16,189.67 90.55,189.9 90.93,190.13 91.32,190.36 91.7,190.57 92.08,190.76 92.47,190.92 92.85,191.05 93.24,191.15 93.62,191.2 94.01,191.22 94.39,191.2 94.78,191.17 95.16,191.11 95.54,191.04 95.93,190.96 96.31,190.88 96.7,190.81 97.08,190.76 97.47,190.73 97.85,190.73 98.24,190.76 98.62,190.82 99,190.91 99.39,191.04 99.77,191.19 100.16,191.36 100.54,191.54 100.93,191.73 101.31,191.91 101.7,192.08 102.08,192.23 102.46,192.35 102.85,192.44 103.23,192.51 103.62,192.55 104,192.57 104.39,192.57 104.77,192.56 105.16,192.55 105.54,192.54 105.92,192.54 106.31,192.56 106.69,192.6 107.08,192.64 107.46,192.7 107.85,192.77 108.23,192.84 108.62,192.9 109,192.96 109.38,193 109.77,193.03 110.15,193.05 110.54,193.05 110.92,193.05 111.31,193.05 111.69,193.05 112.08,193.06 112.46,193.07 112.84,193.09 113.23,193.13 113.61,193.17 114,193.23 114.38,193.29 114.77,193.36 115.15,193.43 115.54,193.5 115.92,193.57 116.3,193.63 116.69,193.69 117.07,193.73 117.46,193.75 117.84,193.76 118.23,193.73 118.61,193.67 119,193.58 119.38,193.46 119.76,193.29 120.15,193.09 120.53,192.87 120.92,192.62 121.3,192.36 121.69,192.09 122.07,191.81 122.46,191.54 122.84,191.27 123.22,191.01 123.61,190.76 123.99,190.51 124.38,190.26 124.76,190.01 125.15,189.77 125.53,189.53 125.92,189.28 126.3,189.04 126.68,188.8 127.07,188.56 127.45,188.32 127.84,188.08 128.22,187.84 128.61,187.61 128.99,187.38 129.38,187.16 129.76,186.93 130.14,186.71 130.53,186.49 130.91,186.27 131.3,186.05 131.68,185.83 132.07,185.59 132.45,185.35 132.84,185.09 133.22,184.81 133.6,184.5 133.99,184.17 134.37,183.81 134.76,183.42 135.14,183.01 135.53,182.57 135.91,182.11 136.3,181.64 136.68,181.15 137.07,180.65 137.45,180.15 137.83,179.65 138.22,179.15 138.6,178.64 138.99,178.14 139.37,177.65 139.76,177.15 140.14,176.65 140.53,176.16 140.91,175.66 141.29,175.16 141.68,174.67 142.06,174.18 142.45,173.69 142.83,173.21 143.22,172.72 143.6,172.25 143.99,171.77 144.37,171.3 144.75,170.82 145.14,170.35 145.52,169.88 145.91,169.41 146.29,168.94 146.68,168.46 147.06,167.99 147.45,167.53 147.83,167.06 148.21,166.6 148.6,166.15 148.98,165.71 149.37,165.27 149.75,164.84 150.14,164.42 150.52,164 150.91,163.59 151.29,163.18 151.67,162.77 152.06,162.36 152.44,161.94 152.83,161.52 153.21,161.09 153.6,160.65 153.98,160.21 154.37,159.76 154.75,159.31 155.13,158.87 155.52,158.42 155.9,157.99 156.29,157.55 156.67,157.12 157.06,156.7 157.44,156.28 157.83,155.85 158.21,155.43 158.59,155.01 158.98,154.58 159.36,154.14 159.75,153.7 160.13,153.25 160.52,152.8 160.9,152.33 161.29,151.87 161.67,151.39 162.05,150.92 162.44,150.44 162.82,149.96 163.21,149.48 163.59,149 163.98,148.52 164.36,148.03 164.75,147.55 165.13,147.06 165.51,146.57 165.9,146.08 166.28,145.58 166.67,145.09 167.05,144.59 167.44,144.09 167.82,143.59 168.21,143.09 168.59,142.59 168.97,142.09 169.36,141.59 169.74,141.1 170.13,140.6 170.51,140.12 170.9,139.63 171.28,139.15 171.67,138.68 172.05,138.21 172.43,137.75 172.82,137.29 173.2,136.84 173.59,136.39 173.97,135.95 174.36,135.51 174.74,135.07 175.13,134.64 175.51,134.2 175.89,133.78 176.28,133.35 176.66,132.94 177.05,132.52 177.43,132.12 177.82,131.71 178.2,131.31 178.59,130.91 178.97,130.51 179.35,130.1 179.74,129.7 180.12,129.29 180.51,128.87 180.89,128.44 181.28,128.01 181.66,127.57 182.05,127.13 182.43,126.68 182.82,126.23 183.2,125.77 183.58,125.31 183.97,124.85 184.35,124.39 184.74,123.94 185.12,123.49 185.51,123.05 185.89,122.62 186.28,122.2 186.66,121.79 187.04,121.38 187.43,120.99 187.81,120.59 188.2,120.21 188.58,119.82 188.97,119.43 189.35,119.04 189.74,118.64 190.12,118.24 190.5,117.83 190.89,117.42 191.27,117.01 191.66,116.59 192.04,116.17 192.43,115.75 192.81,115.32 193.2,114.89 193.58,114.46 193.96,114.04 194.35,113.61 194.73,113.18 195.12,112.75 195.5,112.32 195.89,111.9 196.27,111.47 196.66,111.04 197.04,110.62 197.42,110.19 197.81,109.77 198.19,109.35 198.58,108.93 198.96,108.52 199.35,108.12 199.73,107.72 200.12,107.34 200.5,106.96 200.88,106.59 201.27,106.23 201.65,105.88 202.04,105.54 202.42,105.2 202.81,104.87 203.19,104.53 203.58,104.2 203.96,103.86 204.34,103.52 204.73,103.18 205.11,102.83 205.5,102.48 205.88,102.13 206.27,101.77 206.65,101.41 207.04,101.05 207.42,100.68 207.8,100.32 208.19,99.94 208.57,99.57 208.96,99.2 209.34,98.82 209.73,98.45 210.11,98.07 210.5,97.7 210.88,97.33 211.26,96.97 211.65,96.61 212.03,96.26 212.42,95.92 212.8,95.59 213.19,95.26 213.57,94.94 213.96,94.62 214.34,94.31 214.72,94 215.11,93.7 215.49,93.39 215.88,93.08 216.26,92.77 216.65,92.45 217.03,92.13 217.42,91.81 217.8,91.49 218.18,91.17 218.57,90.84 218.95,90.52 219.34,90.19 219.72,89.87 220.11,89.55 220.49,89.23 220.88,88.92 221.26,88.61 221.64,88.3 222.03,88 222.41,87.69 222.8,87.39 223.18,87.09 223.57,86.79 223.95,86.49 224.34,86.19 224.72,85.88 225.1,85.58 225.49,85.27 225.87,84.97 226.26,84.66 226.64,84.35 227.03,84.05 227.41,83.75 227.8,83.45 228.18,83.15 228.57,82.85 228.95,82.56 229.33,82.27 229.72,81.99 230.1,81.7 230.49,81.41 230.87,81.13 231.26,80.84 231.64,80.55 232.03,80.25 232.41,79.96 232.79,79.66 233.18,79.36 233.56,79.06 233.95,78.76 234.33,78.45 234.72,78.15 235.1,77.85 235.49,77.55 235.87,77.25 236.25,76.96 236.64,76.67 237.02,76.39 237.41,76.12 237.79,75.85 238.18,75.59 238.56,75.33 238.95,75.08 239.33,74.84 239.71,74.6 240.1,74.37 240.48,74.14 240.87,73.92 241.25,73.71 241.64,73.51 242.02,73.33 242.41,73.17 242.79,73.05 243.17,72.97 243.56,72.94 243.94,72.97 244.33,73.07 244.71,73.25 245.1,73.53 245.48,73.9 245.87,74.37 246.25,74.93 246.63,75.58 247.02,76.31 247.4,77.1 247.79,77.91 248.17,78.7 248.56,79.45 248.94,80.1 249.33,80.63 249.71,80.99 250.09,81.16 250.48,81.11 250.86,80.82 251.25,80.29 251.63,79.5 252.02,78.49 252.4,77.3 252.79,75.94 253.17,74.48 253.55,72.94 253.94,71.38 254.32,69.84 254.71,68.35 255.09,66.94 255.48,65.65 255.86,64.5 256.25,63.5 256.63,62.65 257.01,61.94 257.4,61.36 257.78,60.89 258.17,60.53 258.55,60.25 258.94,60.05 259.32,59.9 259.71,59.79 260.09,59.72 260.47,59.68 260.86,59.64 261.24,59.62 261.63,59.61" stroke-dasharray="none" stroke="rgb(31,120,180)" stroke-width="0.75" opacity="1" stroke-opacity="1" fill="none"/>
          </g>
          <g id="Fig:densplot_01.xyplot.lines.group.4.panel.1.1.1">
            <polyline id="Fig:densplot_01.xyplot.lines.group.4.panel.1.1.1.1" points="65.14,59.63 65.52,59.65 65.91,59.69 66.29,59.74 66.68,59.82 67.06,59.93 67.45,60.1 67.83,60.34 68.21,60.65 68.6,61.07 68.98,61.62 69.37,62.32 69.75,63.18 70.14,64.24 70.52,65.51 70.91,67.01 71.29,68.75 71.68,70.76 72.06,73.03 72.44,75.54 72.83,78.29 73.21,81.25 73.6,84.41 73.98,87.74 74.37,91.22 74.75,94.81 75.14,98.48 75.52,102.21 75.91,105.94 76.29,109.65 76.68,113.3 77.06,116.86 77.44,120.3 77.83,123.6 78.21,126.73 78.6,129.68 78.98,132.44 79.37,135 79.75,137.35 80.14,139.51 80.52,141.45 80.91,143.21 81.29,144.79 81.68,146.21 82.06,147.48 82.44,148.62 82.83,149.63 83.21,150.53 83.6,151.33 83.98,152.05 84.37,152.69 84.75,153.27 85.14,153.78 85.52,154.26 85.91,154.7 86.29,155.12 86.67,155.52 87.06,155.91 87.44,156.31 87.83,156.71 88.21,157.12 88.6,157.55 88.98,158 89.37,158.46 89.75,158.94 90.14,159.43 90.52,159.93 90.91,160.41 91.29,160.89 91.67,161.35 92.06,161.79 92.44,162.2 92.83,162.58 93.21,162.93 93.6,163.25 93.98,163.55 94.37,163.83 94.75,164.11 95.14,164.38 95.52,164.66 95.91,164.95 96.29,165.25 96.67,165.58 97.06,165.93 97.44,166.32 97.83,166.72 98.21,167.16 98.6,167.62 98.98,168.1 99.37,168.6 99.75,169.1 100.14,169.6 100.52,170.09 100.9,170.57 101.29,171.02 101.67,171.45 102.06,171.85 102.44,172.22 102.83,172.55 103.21,172.87 103.6,173.16 103.98,173.44 104.37,173.72 104.75,173.99 105.14,174.27 105.52,174.56 105.9,174.87 106.29,175.19 106.67,175.53 107.06,175.88 107.44,176.23 107.83,176.6 108.21,176.97 108.6,177.34 108.98,177.7 109.37,178.05 109.75,178.4 110.14,178.73 110.52,179.05 110.9,179.35 111.29,179.64 111.67,179.92 112.06,180.19 112.44,180.46 112.83,180.74 113.21,181.01 113.6,181.29 113.98,181.58 114.37,181.89 114.75,182.2 115.14,182.53 115.52,182.87 115.9,183.22 116.29,183.58 116.67,183.93 117.06,184.29 117.44,184.63 117.83,184.97 118.21,185.3 118.6,185.6 118.98,185.89 119.37,186.15 119.75,186.39 120.13,186.59 120.52,186.77 120.9,186.93 121.29,187.06 121.67,187.17 122.06,187.26 122.44,187.34 122.83,187.4 123.21,187.44 123.6,187.48 123.98,187.52 124.37,187.54 124.75,187.57 125.13,187.59 125.52,187.6 125.9,187.62 126.29,187.63 126.67,187.64 127.06,187.65 127.44,187.65 127.83,187.66 128.21,187.66 128.6,187.67 128.98,187.68 129.37,187.7 129.75,187.72 130.13,187.75 130.52,187.78 130.9,187.83 131.29,187.87 131.67,187.92 132.06,187.96 132.44,188 132.83,188.03 133.21,188.05 133.6,188.05 133.98,188.03 134.36,187.99 134.75,187.93 135.13,187.84 135.52,187.74 135.9,187.6 136.29,187.45 136.67,187.28 137.06,187.08 137.44,186.87 137.83,186.65 138.21,186.42 138.6,186.18 138.98,185.93 139.36,185.68 139.75,185.44 140.13,185.19 140.52,184.95 140.9,184.71 141.29,184.47 141.67,184.23 142.06,183.99 142.44,183.74 142.83,183.49 143.21,183.22 143.6,182.95 143.98,182.66 144.36,182.37 144.75,182.06 145.13,181.74 145.52,181.41 145.9,181.07 146.29,180.73 146.67,180.38 147.06,180.03 147.44,179.68 147.83,179.33 148.21,178.98 148.59,178.62 148.98,178.26 149.36,177.9 149.75,177.53 150.13,177.15 150.52,176.75 150.9,176.35 151.29,175.92 151.67,175.48 152.06,175.02 152.44,174.55 152.83,174.06 153.21,173.55 153.59,173.04 153.98,172.52 154.36,171.99 154.75,171.47 155.13,170.96 155.52,170.46 155.9,169.97 156.29,169.51 156.67,169.06 157.06,168.64 157.44,168.23 157.83,167.84 158.21,167.45 158.59,167.08 158.98,166.7 159.36,166.32 159.75,165.92 160.13,165.52 160.52,165.09 160.9,164.65 161.29,164.19 161.67,163.71 162.06,163.21 162.44,162.7 162.83,162.18 163.21,161.65 163.59,161.12 163.98,160.59 164.36,160.08 164.75,159.56 165.13,159.06 165.52,158.57 165.9,158.08 166.29,157.6 166.67,157.13 167.06,156.65 167.44,156.18 167.82,155.7 168.21,155.22 168.59,154.74 168.98,154.25 169.36,153.75 169.75,153.25 170.13,152.75 170.52,152.24 170.9,151.73 171.29,151.23 171.67,150.73 172.06,150.23 172.44,149.74 172.82,149.25 173.21,148.77 173.59,148.29 173.98,147.81 174.36,147.32 174.75,146.84 175.13,146.34 175.52,145.84 175.9,145.33 176.29,144.81 176.67,144.29 177.06,143.77 177.44,143.26 177.82,142.74 178.21,142.22 178.59,141.71 178.98,141.2 179.36,140.69 179.75,140.18 180.13,139.67 180.52,139.15 180.9,138.64 181.29,138.12 181.67,137.6 182.05,137.08 182.44,136.56 182.82,136.05 183.21,135.55 183.59,135.06 183.98,134.58 184.36,134.12 184.75,133.67 185.13,133.24 185.52,132.82 185.9,132.41 186.29,132 186.67,131.6 187.05,131.2 187.44,130.8 187.82,130.4 188.21,130 188.59,129.59 188.98,129.17 189.36,128.76 189.75,128.33 190.13,127.91 190.52,127.48 190.9,127.05 191.29,126.61 191.67,126.17 192.05,125.73 192.44,125.29 192.82,124.85 193.21,124.4 193.59,123.95 193.98,123.51 194.36,123.07 194.75,122.63 195.13,122.2 195.52,121.77 195.9,121.34 196.28,120.92 196.67,120.5 197.05,120.09 197.44,119.68 197.82,119.26 198.21,118.85 198.59,118.44 198.98,118.03 199.36,117.61 199.75,117.2 200.13,116.78 200.52,116.36 200.9,115.95 201.28,115.53 201.67,115.12 202.05,114.7 202.44,114.29 202.82,113.88 203.21,113.47 203.59,113.05 203.98,112.64 204.36,112.23 204.75,111.82 205.13,111.41 205.52,111.01 205.9,110.61 206.28,110.22 206.67,109.84 207.05,109.46 207.44,109.08 207.82,108.7 208.21,108.33 208.59,107.95 208.98,107.57 209.36,107.19 209.75,106.8 210.13,106.4 210.52,106 210.9,105.59 211.28,105.18 211.67,104.77 212.05,104.36 212.44,103.96 212.82,103.56 213.21,103.17 213.59,102.79 213.98,102.41 214.36,102.04 214.75,101.68 215.13,101.32 215.51,100.96 215.9,100.61 216.28,100.25 216.67,99.89 217.05,99.53 217.44,99.17 217.82,98.8 218.21,98.44 218.59,98.08 218.98,97.72 219.36,97.37 219.75,97.01 220.13,96.66 220.51,96.3 220.9,95.95 221.28,95.59 221.67,95.22 222.05,94.85 222.44,94.47 222.82,94.09 223.21,93.7 223.59,93.31 223.98,92.91 224.36,92.52 224.75,92.12 225.13,91.73 225.51,91.35 225.9,90.97 226.28,90.6 226.67,90.24 227.05,89.89 227.44,89.55 227.82,89.22 228.21,88.9 228.59,88.58 228.98,88.27 229.36,87.95 229.74,87.63 230.13,87.3 230.51,86.97 230.9,86.63 231.28,86.28 231.67,85.93 232.05,85.57 232.44,85.22 232.82,84.86 233.21,84.51 233.59,84.16 233.98,83.82 234.36,83.49 234.74,83.15 235.13,82.83 235.51,82.5 235.9,82.18 236.28,81.86 236.67,81.54 237.05,81.22 237.44,80.9 237.82,80.58 238.21,80.27 238.59,79.95 238.98,79.64 239.36,79.33 239.74,79.02 240.13,78.71 240.51,78.4 240.9,78.1 241.28,77.81 241.67,77.52 242.05,77.25 242.44,77 242.82,76.77 243.21,76.57 243.59,76.42 243.97,76.31 244.36,76.26 244.74,76.27 245.13,76.36 245.51,76.52 245.9,76.76 246.28,77.09 246.67,77.51 247.05,78.01 247.44,78.58 247.82,79.19 248.21,79.82 248.59,80.46 248.97,81.05 249.36,81.57 249.74,81.99 250.13,82.26 250.51,82.36 250.9,82.25 251.28,81.9 251.67,81.3 252.05,80.47 252.44,79.42 252.82,78.16 253.21,76.74 253.59,75.2 253.97,73.57 254.36,71.9 254.74,70.25 255.13,68.66 255.51,67.16 255.9,65.8 256.28,64.6 256.67,63.54 257.05,62.65 257.44,61.91 257.82,61.31 258.21,60.84 258.59,60.48 258.97,60.21 259.36,60.01 259.74,59.87 260.13,59.77 260.51,59.71 260.9,59.66 261.28,59.64 261.67,59.62" stroke-dasharray="none" stroke="rgb(31,120,180)" stroke-width="0.75" opacity="1" stroke-opacity="1" fill="none"/>
          </g>
          <g id="Fig:densplot_01.xyplot.lines.group.5.panel.1.1.1">
            <polyline id="Fig:densplot_01.xyplot.lines.group.5.panel.1.1.1.1" points="64.72,59.65 65.11,59.69 65.5,59.74 65.88,59.83 66.27,59.95 66.65,60.12 67.04,60.37 67.43,60.71 67.81,61.18 68.2,61.81 68.59,62.61 68.97,63.64 69.36,64.93 69.74,66.51 70.13,68.42 70.52,70.69 70.9,73.35 71.29,76.43 71.68,79.95 72.06,83.9 72.45,88.26 72.83,93.01 73.22,98.12 73.61,103.56 73.99,109.29 74.38,115.25 74.77,121.39 75.15,127.64 75.54,133.95 75.92,140.23 76.31,146.43 76.7,152.46 77.08,158.28 77.47,163.84 77.85,169.09 78.24,173.99 78.63,178.51 79.01,182.64 79.4,186.37 79.79,189.67 80.17,192.57 80.56,195.1 80.94,197.29 81.33,199.16 81.72,200.74 82.1,202.06 82.49,203.16 82.88,204.06 83.26,204.79 83.65,205.37 84.03,205.82 84.42,206.17 84.81,206.43 85.19,206.63 85.58,206.77 85.97,206.87 86.35,206.93 86.74,206.96 87.12,206.97 87.51,206.97 87.9,206.95 88.28,206.93 88.67,206.9 89.06,206.86 89.44,206.81 89.83,206.75 90.21,206.67 90.6,206.58 90.99,206.46 91.37,206.31 91.76,206.13 92.14,205.9 92.53,205.64 92.92,205.33 93.3,204.98 93.69,204.59 94.08,204.17 94.46,203.72 94.85,203.26 95.23,202.78 95.62,202.31 96.01,201.85 96.39,201.4 96.78,200.99 97.17,200.61 97.55,200.27 97.94,199.97 98.32,199.71 98.71,199.48 99.1,199.27 99.48,199.09 99.87,198.92 100.26,198.75 100.64,198.57 101.03,198.38 101.41,198.17 101.8,197.93 102.19,197.66 102.57,197.37 102.96,197.04 103.35,196.7 103.73,196.33 104.12,195.94 104.5,195.54 104.89,195.14 105.28,194.73 105.66,194.32 106.05,193.9 106.43,193.49 106.82,193.07 107.21,192.65 107.59,192.22 107.98,191.77 108.37,191.31 108.75,190.83 109.14,190.33 109.52,189.8 109.91,189.25 110.3,188.67 110.68,188.08 111.07,187.47 111.46,186.85 111.84,186.23 112.23,185.62 112.61,185.02 113,184.44 113.39,183.88 113.77,183.36 114.16,182.88 114.55,182.43 114.93,182.02 115.32,181.64 115.7,181.31 116.09,181.01 116.48,180.73 116.86,180.49 117.25,180.26 117.64,180.05 118.02,179.84 118.41,179.64 118.79,179.43 119.18,179.21 119.57,178.98 119.95,178.73 120.34,178.46 120.72,178.17 121.11,177.86 121.5,177.54 121.88,177.2 122.27,176.86 122.66,176.5 123.04,176.13 123.43,175.76 123.81,175.39 124.2,175.02 124.59,174.65 124.97,174.29 125.36,173.92 125.75,173.56 126.13,173.21 126.52,172.86 126.9,172.5 127.29,172.15 127.68,171.8 128.06,171.45 128.45,171.1 128.84,170.75 129.22,170.4 129.61,170.06 129.99,169.72 130.38,169.39 130.77,169.06 131.15,168.74 131.54,168.43 131.93,168.13 132.31,167.82 132.7,167.52 133.08,167.21 133.47,166.9 133.86,166.58 134.24,166.24 134.63,165.9 135.01,165.54 135.4,165.17 135.79,164.8 136.17,164.43 136.56,164.05 136.95,163.68 137.33,163.32 137.72,162.96 138.1,162.62 138.49,162.29 138.88,161.97 139.26,161.66 139.65,161.36 140.04,161.07 140.42,160.77 140.81,160.48 141.19,160.18 141.58,159.89 141.97,159.58 142.35,159.28 142.74,158.96 143.13,158.65 143.51,158.33 143.9,158 144.28,157.67 144.67,157.33 145.06,156.99 145.44,156.64 145.83,156.28 146.22,155.91 146.6,155.54 146.99,155.16 147.37,154.77 147.76,154.38 148.15,153.98 148.53,153.59 148.92,153.19 149.31,152.79 149.69,152.39 150.08,151.99 150.46,151.59 150.85,151.19 151.24,150.79 151.62,150.4 152.01,150.01 152.39,149.63 152.78,149.26 153.17,148.9 153.55,148.56 153.94,148.23 154.33,147.92 154.71,147.63 155.1,147.35 155.48,147.08 155.87,146.82 156.26,146.57 156.64,146.31 157.03,146.06 157.42,145.79 157.8,145.52 158.19,145.24 158.57,144.94 158.96,144.64 159.35,144.33 159.73,144.01 160.12,143.69 160.51,143.36 160.89,143.03 161.28,142.71 161.66,142.38 162.05,142.06 162.44,141.74 162.82,141.42 163.21,141.1 163.6,140.77 163.98,140.45 164.37,140.13 164.75,139.81 165.14,139.49 165.53,139.18 165.91,138.86 166.3,138.56 166.68,138.25 167.07,137.96 167.46,137.67 167.84,137.38 168.23,137.11 168.62,136.83 169,136.55 169.39,136.27 169.77,135.99 170.16,135.7 170.55,135.4 170.93,135.09 171.32,134.78 171.71,134.45 172.09,134.11 172.48,133.76 172.86,133.41 173.25,133.05 173.64,132.69 174.02,132.33 174.41,131.97 174.8,131.62 175.18,131.26 175.57,130.91 175.95,130.57 176.34,130.23 176.73,129.9 177.11,129.57 177.5,129.24 177.89,128.92 178.27,128.6 178.66,128.28 179.04,127.96 179.43,127.64 179.82,127.33 180.2,127.01 180.59,126.71 180.97,126.41 181.36,126.11 181.75,125.82 182.13,125.53 182.52,125.24 182.91,124.95 183.29,124.66 183.68,124.37 184.06,124.08 184.45,123.78 184.84,123.48 185.22,123.17 185.61,122.85 186,122.53 186.38,122.21 186.77,121.88 187.15,121.55 187.54,121.22 187.93,120.89 188.31,120.55 188.7,120.22 189.09,119.88 189.47,119.54 189.86,119.2 190.24,118.87 190.63,118.53 191.02,118.19 191.4,117.85 191.79,117.51 192.18,117.18 192.56,116.85 192.95,116.53 193.33,116.21 193.72,115.9 194.11,115.59 194.49,115.29 194.88,115 195.26,114.71 195.65,114.42 196.04,114.13 196.42,113.85 196.81,113.56 197.2,113.27 197.58,112.97 197.97,112.67 198.35,112.37 198.74,112.06 199.13,111.74 199.51,111.43 199.9,111.11 200.29,110.79 200.67,110.47 201.06,110.15 201.44,109.83 201.83,109.51 202.22,109.19 202.6,108.88 202.99,108.56 203.38,108.25 203.76,107.94 204.15,107.62 204.53,107.3 204.92,106.99 205.31,106.67 205.69,106.36 206.08,106.04 206.47,105.73 206.85,105.42 207.24,105.1 207.62,104.79 208.01,104.48 208.4,104.17 208.78,103.86 209.17,103.55 209.55,103.24 209.94,102.94 210.33,102.63 210.71,102.33 211.1,102.04 211.49,101.75 211.87,101.46 212.26,101.19 212.64,100.92 213.03,100.65 213.42,100.39 213.8,100.13 214.19,99.87 214.58,99.61 214.96,99.34 215.35,99.06 215.73,98.78 216.12,98.49 216.51,98.19 216.89,97.88 217.28,97.56 217.67,97.24 218.05,96.9 218.44,96.56 218.82,96.22 219.21,95.87 219.6,95.52 219.98,95.17 220.37,94.82 220.76,94.47 221.14,94.12 221.53,93.77 221.91,93.42 222.3,93.09 222.69,92.75 223.07,92.42 223.46,92.1 223.84,91.78 224.23,91.47 224.62,91.17 225,90.87 225.39,90.58 225.78,90.29 226.16,90 226.55,89.73 226.93,89.45 227.32,89.18 227.71,88.92 228.09,88.67 228.48,88.42 228.87,88.18 229.25,87.96 229.64,87.74 230.02,87.54 230.41,87.35 230.8,87.17 231.18,87.01 231.57,86.86 231.96,86.72 232.34,86.6 232.73,86.5 233.11,86.41 233.5,86.35 233.89,86.3 234.27,86.28 234.66,86.28 235.05,86.31 235.43,86.37 235.82,86.46 236.2,86.58 236.59,86.73 236.98,86.91 237.36,87.12 237.75,87.34 238.13,87.59 238.52,87.84 238.91,88.09 239.29,88.32 239.68,88.53 240.07,88.69 240.45,88.78 240.84,88.8 241.22,88.73 241.61,88.56 242,88.28 242.38,87.9 242.77,87.39 243.16,86.78 243.54,86.07 243.93,85.28 244.31,84.42 244.7,83.53 245.09,82.6 245.47,81.68 245.86,80.77 246.25,79.88 246.63,79.04 247.02,78.24 247.4,77.5 247.79,76.83 248.18,76.2 248.56,75.62 248.95,75.09 249.34,74.58 249.72,74.08 250.11,73.6 250.49,73.1 250.88,72.59 251.27,72.05 251.65,71.47 252.04,70.84 252.43,70.16 252.81,69.45 253.2,68.69 253.58,67.9 253.97,67.09 254.36,66.27 254.74,65.46 255.13,64.67 255.51,63.92 255.9,63.23 256.29,62.59 256.67,62.03 257.06,61.54 257.45,61.11 257.83,60.76 258.22,60.47 258.6,60.24 258.99,60.06 259.38,59.92 259.76,59.82 260.15,59.75 260.54,59.7 260.92,59.66 261.31,59.64 261.69,59.62 262.08,59.61" stroke-dasharray="none" stroke="rgb(31,120,180)" stroke-width="0.75" opacity="1" stroke-opacity="1" fill="none"/>
          </g>
          <g id="Fig:densplot_01.xyplot.lines.group.6.panel.1.1.1">
            <polyline id="Fig:densplot_01.xyplot.lines.group.6.panel.1.1.1.1" points="64.63,59.6 65.02,59.6 65.4,59.6 65.79,59.61 66.18,59.62 66.56,59.63 66.95,59.65 67.34,59.68 67.72,59.72 68.11,59.77 68.5,59.84 68.88,59.94 69.27,60.07 69.66,60.24 70.04,60.47 70.43,60.75 70.82,61.1 71.2,61.55 71.59,62.1 71.98,62.76 72.36,63.59 72.75,64.58 73.14,65.76 73.52,67.15 73.91,68.76 74.3,70.62 74.68,72.75 75.07,75.16 75.46,77.86 75.84,80.86 76.23,84.17 76.62,87.8 77,91.73 77.39,95.93 77.78,100.38 78.16,105.06 78.55,109.93 78.94,114.96 79.32,120.1 79.71,125.32 80.09,130.57 80.48,135.82 80.87,141 81.25,146.11 81.64,151.09 82.03,155.93 82.41,160.61 82.8,165.12 83.19,169.44 83.57,173.57 83.96,177.52 84.35,181.28 84.73,184.83 85.12,188.21 85.51,191.4 85.89,194.43 86.28,197.29 86.67,199.98 87.05,202.52 87.44,204.9 87.83,207.13 88.21,209.2 88.6,211.12 88.99,212.88 89.37,214.49 89.76,215.94 90.15,217.25 90.53,218.42 90.92,219.43 91.31,220.31 91.69,221.03 92.08,221.62 92.47,222.07 92.85,222.37 93.24,222.54 93.62,222.59 94.01,222.53 94.4,222.37 94.78,222.12 95.17,221.8 95.56,221.42 95.94,221 96.33,220.53 96.72,220.05 97.1,219.54 97.49,219.03 97.88,218.5 98.26,217.96 98.65,217.41 99.04,216.84 99.42,216.25 99.81,215.63 100.2,214.99 100.58,214.32 100.97,213.62 101.36,212.89 101.74,212.14 102.13,211.37 102.52,210.6 102.9,209.82 103.29,209.05 103.68,208.28 104.06,207.53 104.45,206.8 104.84,206.08 105.22,205.38 105.61,204.69 106,204.01 106.38,203.32 106.77,202.64 107.16,201.95 107.54,201.25 107.93,200.53 108.31,199.81 108.7,199.06 109.09,198.31 109.47,197.54 109.86,196.76 110.25,195.98 110.63,195.19 111.02,194.41 111.41,193.63 111.79,192.85 112.18,192.08 112.57,191.31 112.95,190.55 113.34,189.8 113.73,189.06 114.11,188.33 114.5,187.62 114.89,186.92 115.27,186.24 115.66,185.59 116.05,184.95 116.43,184.35 116.82,183.77 117.21,183.22 117.59,182.69 117.98,182.19 118.37,181.7 118.75,181.23 119.14,180.76 119.53,180.3 119.91,179.84 120.3,179.38 120.69,178.93 121.07,178.47 121.46,178.01 121.84,177.56 122.23,177.1 122.62,176.66 123,176.21 123.39,175.77 123.78,175.33 124.16,174.9 124.55,174.47 124.94,174.04 125.32,173.61 125.71,173.18 126.1,172.75 126.48,172.32 126.87,171.88 127.26,171.45 127.64,171.01 128.03,170.56 128.42,170.12 128.8,169.68 129.19,169.23 129.58,168.79 129.96,168.35 130.35,167.92 130.74,167.5 131.12,167.09 131.51,166.69 131.9,166.31 132.28,165.94 132.67,165.58 133.06,165.23 133.44,164.89 133.83,164.56 134.22,164.24 134.6,163.91 134.99,163.58 135.38,163.24 135.76,162.89 136.15,162.54 136.53,162.17 136.92,161.8 137.31,161.41 137.69,161.02 138.08,160.62 138.47,160.22 138.85,159.82 139.24,159.42 139.63,159.03 140.01,158.65 140.4,158.28 140.79,157.92 141.17,157.57 141.56,157.24 141.95,156.93 142.33,156.63 142.72,156.34 143.11,156.07 143.49,155.81 143.88,155.55 144.27,155.3 144.65,155.05 145.04,154.81 145.43,154.56 145.81,154.3 146.2,154.04 146.59,153.78 146.97,153.51 147.36,153.23 147.75,152.95 148.13,152.66 148.52,152.37 148.91,152.08 149.29,151.8 149.68,151.51 150.07,151.23 150.45,150.95 150.84,150.67 151.22,150.39 151.61,150.11 152,149.83 152.38,149.55 152.77,149.26 153.16,148.96 153.54,148.66 153.93,148.34 154.32,148.02 154.7,147.68 155.09,147.33 155.48,146.98 155.86,146.61 156.25,146.24 156.64,145.86 157.02,145.48 157.41,145.1 157.8,144.71 158.18,144.33 158.57,143.95 158.96,143.57 159.34,143.19 159.73,142.82 160.12,142.44 160.5,142.08 160.89,141.72 161.28,141.37 161.66,141.02 162.05,140.68 162.44,140.36 162.82,140.04 163.21,139.73 163.6,139.43 163.98,139.13 164.37,138.84 164.75,138.56 165.14,138.27 165.53,138 165.91,137.72 166.3,137.45 166.69,137.18 167.07,136.92 167.46,136.67 167.85,136.42 168.23,136.18 168.62,135.96 169.01,135.73 169.39,135.52 169.78,135.31 170.17,135.09 170.55,134.88 170.94,134.66 171.33,134.43 171.71,134.19 172.1,133.94 172.49,133.69 172.87,133.42 173.26,133.14 173.65,132.86 174.03,132.58 174.42,132.29 174.81,132 175.19,131.72 175.58,131.44 175.97,131.16 176.35,130.88 176.74,130.62 177.13,130.35 177.51,130.1 177.9,129.85 178.29,129.6 178.67,129.37 179.06,129.14 179.44,128.91 179.83,128.7 180.22,128.49 180.6,128.28 180.99,128.07 181.38,127.86 181.76,127.65 182.15,127.44 182.54,127.21 182.92,126.98 183.31,126.73 183.7,126.48 184.08,126.22 184.47,125.95 184.86,125.68 185.24,125.41 185.63,125.15 186.02,124.89 186.4,124.65 186.79,124.42 187.18,124.2 187.56,123.99 187.95,123.79 188.34,123.6 188.72,123.41 189.11,123.23 189.5,123.04 189.88,122.84 190.27,122.64 190.66,122.43 191.04,122.21 191.43,121.97 191.82,121.73 192.2,121.47 192.59,121.2 192.98,120.92 193.36,120.63 193.75,120.34 194.13,120.04 194.52,119.74 194.91,119.43 195.29,119.13 195.68,118.82 196.07,118.52 196.45,118.22 196.84,117.93 197.23,117.64 197.61,117.36 198,117.08 198.39,116.81 198.77,116.54 199.16,116.28 199.55,116.02 199.93,115.77 200.32,115.52 200.71,115.27 201.09,115.03 201.48,114.79 201.87,114.55 202.25,114.31 202.64,114.07 203.03,113.84 203.41,113.61 203.8,113.39 204.19,113.17 204.57,112.96 204.96,112.75 205.35,112.55 205.73,112.35 206.12,112.16 206.51,111.96 206.89,111.76 207.28,111.56 207.66,111.34 208.05,111.12 208.44,110.88 208.82,110.63 209.21,110.36 209.6,110.08 209.98,109.8 210.37,109.5 210.76,109.2 211.14,108.9 211.53,108.6 211.92,108.3 212.3,108.01 212.69,107.72 213.08,107.43 213.46,107.15 213.85,106.88 214.24,106.61 214.62,106.34 215.01,106.07 215.4,105.8 215.78,105.54 216.17,105.27 216.56,105 216.94,104.73 217.33,104.45 217.72,104.17 218.1,103.88 218.49,103.59 218.88,103.29 219.26,102.99 219.65,102.68 220.04,102.37 220.42,102.05 220.81,101.73 221.2,101.4 221.58,101.08 221.97,100.74 222.35,100.41 222.74,100.07 223.13,99.73 223.51,99.38 223.9,99.04 224.29,98.7 224.67,98.36 225.06,98.02 225.45,97.68 225.83,97.35 226.22,97.03 226.61,96.71 226.99,96.39 227.38,96.09 227.77,95.79 228.15,95.5 228.54,95.22 228.93,94.95 229.31,94.69 229.7,94.44 230.09,94.2 230.47,93.96 230.86,93.74 231.25,93.51 231.63,93.29 232.02,93.07 232.41,92.85 232.79,92.63 233.18,92.41 233.57,92.18 233.95,91.95 234.34,91.71 234.73,91.47 235.11,91.23 235.5,90.98 235.88,90.74 236.27,90.49 236.66,90.25 237.04,90.02 237.43,89.79 237.82,89.57 238.2,89.36 238.59,89.16 238.98,88.99 239.36,88.83 239.75,88.69 240.14,88.57 240.52,88.48 240.91,88.41 241.3,88.37 241.68,88.36 242.07,88.37 242.46,88.42 242.84,88.49 243.23,88.59 243.62,88.71 244,88.84 244.39,88.98 244.78,89.12 245.16,89.24 245.55,89.34 245.94,89.39 246.32,89.4 246.71,89.32 247.1,89.15 247.48,88.89 247.87,88.52 248.26,88.03 248.64,87.43 249.03,86.71 249.42,85.88 249.8,84.94 250.19,83.91 250.57,82.79 250.96,81.59 251.35,80.31 251.73,78.99 252.12,77.62 252.51,76.23 252.89,74.81 253.28,73.39 253.67,71.98 254.05,70.59 254.44,69.25 254.83,67.96 255.21,66.75 255.6,65.64 255.99,64.62 256.37,63.71 256.76,62.91 257.15,62.22 257.53,61.64 257.92,61.15 258.31,60.76 258.69,60.45 259.08,60.21 259.47,60.03 259.85,59.9 260.24,59.8 260.63,59.73 261.01,59.68 261.4,59.65 261.79,59.63 262.17,59.62" stroke-dasharray="none" stroke="rgb(31,120,180)" stroke-width="0.75" opacity="1" stroke-opacity="1" fill="none"/>
          </g>
        </g>
        <g id="Fig:densplot_01.panel.1.1.off.vp.2">
          <g id="Fig:densplot_01.border.panel.1.1.1">
            <rect id="Fig:densplot_01.border.panel.1.1.1.1" x="50.8" y="48.19" width="225.2" height="185.81" transform="" stroke="rgb(0,0,0)" stroke-dasharray="none" stroke-width="0.75" opacity="1" fill="none" stroke-opacity="1" fill-opacity="0"/>
          </g>
        </g>
        <g id="Fig:densplot_01..1"/>
      </g>
    </g>
  </g>
</svg>